<?xml version="1.0" standalone="no"?><!DOCTYPE svg PUBLIC "-//W3C//DTD SVG 1.1//EN" "http://www.w3.org/Graphics/SVG/1.1/DTD/svg11.dtd"><svg t="1591104747801" class="icon" viewBox="0 0 1024 1024" version="1.1" xmlns="http://www.w3.org/2000/svg" p-id="3589" width="16" height="16" xmlns:xlink="http://www.w3.org/1999/xlink"><defs><style type="text/css"></style></defs><path d="M386.816 174.4896c-33.3824 5.7856-60.6208 32.256-67.1744 65.28-0.5632 2.9696-1.1264 6.144-1.3312 9.1648-1.3312 13.4144 0.5632 26.3168 5.0176 37.888 1.8432 4.6592 4.096 9.3184 6.7072 13.6192 5.0176 8.3968 2.2528 19.2-6.3488 23.8592-7.8336 4.3008-17.92 1.8432-22.5792-5.5808-7.2704-11.9296-12.4928-25.1904-15.104-39.5264-18.2784 0.5632-36.7616 6.912-52.4288 20.1216-25.7536 21.8112-35.84 58.368-24.832 90.4704 2.4064 6.912 5.5808 12.8512 9.3184 18.6368 7.8336 12.3392 18.2784 22.016 30.4128 28.3648l1.6896 1.1264c7.2704 5.0176 9.6768 14.8992 5.0176 22.784-4.6592 7.6288-14.5408 10.8032-22.3744 6.5536-8.7552-4.6592-16.9984-10.6496-24.4224-17.5616-4.096 2.4064-8.192 5.2224-11.9296 8.3968-25.7536 21.8112-35.84 58.368-24.832 90.4704 7.2704 20.8896 21.248 36.4032 38.2464 46.08 0.3584-0.3584 0.768-0.9216 1.1264-1.3312 19.2-21.4528 43.8272-33.9456 69.5808-38.0416 8.7552-1.4848 17.152 4.6592 19.0464 13.4144 2.048 9.5232-4.3008 18.8416-13.9776 20.3264-19.7632 3.1744-38.8096 13.6192-52.7872 31.5392-20.8896 26.6752-23.296 64.5632-5.9904 93.44 13.824 23.296 35.9936 36.9152 59.6992 40.4992 2.4064-12.1344 6.7072-24.064 13.056-35.072 14.3872-24.9856 35.9936-42.3424 60.2624-51.6608 8.3968-3.1744 17.7152 1.1264 21.4528 9.3184 3.9424 8.96-0.3584 19.2-9.5232 22.784-18.6368 7.2704-35.072 21.248-45.1584 41.7792-1.6896 3.5328-3.1744 7.0656-4.3008 10.8032-3.6864 11.4688-4.864 23.6544-3.3792 35.6352 2.048 16.9984 9.1648 33.3824 21.0944 46.2848 20.1728 21.8112 64.5632 34.304 99.072 19.968 19.6096-8.192 41.216-25.5488 44.5952-47.2064V360.4992c-9.1136-1.6896-17.92-4.4544-26.4704-8.6016-26.112-12.1344-45.312-32.1024-56.7296-55.3984-3.9424-8.0384-0.5632-17.7152 7.2704-22.2208 8.6016-4.6592 19.2-1.3312 23.5008 7.4752 8.96 17.92 24.2688 33.024 45.5168 41.216 2.2528 0.9216 4.6592 1.28 6.912 2.048V237.1584c-10.5472-41.216-51.0464-70.5024-96.9216-62.6688z m27.9552 246.9888c0.9216-6.7072 7.2704-11.3664 13.9776-10.0864 6.144 1.1264 10.6496 6.912 9.728 13.056-2.4064 17.92-10.8032 35.4304-25.5488 49.0496-9.1648 8.6016-19.968 14.3872-31.5392 18.0736 3.9424 4.6592 7.4752 9.728 10.4448 15.3088 21.8112 39.0144 13.9776 89.1904-18.2784 119.9616-2.816 2.6112-5.7856 5.0176-8.7552 7.4752h-0.2048c-14.1824 4.864-25.9584-11.5712-16.7936-23.5008 2.9696-2.2528 5.9904-4.6592 8.7552-7.6288 19.6096-20.6848 24.6272-52.224 12.4928-77.9776-6.7072-14.1824-17.152-24.6272-29.2864-31.5392-2.6112-1.4848-5.4272-3.1744-8.192-4.3008-7.6288-3.1744-11.2128-11.9296-7.6288-19.4048 1.1264-2.4064 2.816-4.096 4.864-5.5808 3.7376-2.816 8.7552-3.7376 13.2608-2.048 5.9904 2.4064 11.5712 5.4272 16.9984 8.96 12.4928-0.5632 24.832-4.6592 34.7136-12.8512 12.2368-9.728 19.1488-23.1424 20.992-36.9664z m0 0" p-id="3590" fill="#13227a"></path><path d="M511.9488 16.2816C238.08 16.2816 16.2816 238.2848 16.2816 511.9488S238.2848 1007.616 511.9488 1007.616 1007.616 785.6128 1007.616 511.9488c0.0512-273.664-221.7984-495.6672-495.6672-495.6672z m50.7904 236.9536h64c5.7856-21.0944 24.6272-36.5568 47.5648-36.5568 27.2384 0 49.4592 22.2208 49.4592 49.4592 0 27.2384-22.2208 49.4592-49.4592 49.4592-22.784 0-41.7792-15.4624-47.5648-36.5568h-64v-25.8048z m0 146.432h214.6816c5.632-21.0944 24.8832-36.608 47.7696-36.608 27.2896 0 49.4592 22.1184 49.4592 49.4592s-22.1184 49.4592-49.4592 49.4592c-22.8864 0-42.1376-15.5136-47.7696-36.608h-214.6816v-25.7024z m0 130.048h96.9216c5.632-21.0944 24.8832-36.608 47.7696-36.608 27.2896 0 49.4592 22.1184 49.4592 49.4592 0 27.2896-22.1184 49.4592-49.4592 49.4592-22.8864 0-42.1376-15.5136-47.7696-36.608h-96.9216v-25.7024z m-48.5376-201.472h-0.2048v478.8736c-3.7376 26.112-20.3264 63.7952-61.184 79.3088-45.8752 17.152-108.9536 0-133.9392-24.2688-20.3264-19.7632-31.8976-46.08-34.5088-73.3184-32.6656-3.9424-63.6416-21.4528-83.968-51.8656-22.5792-33.9456-25.3952-77.2096-9.1136-113.408-21.0944-12.288-38.8096-31.3344-49.2544-56.32-20.6848-48.896-5.0176-107.0592 37.12-139.1616 2.4064-1.8432 5.0176-3.5328 7.6288-5.2224-2.6112-4.4544-5.2224-9.3184-7.2704-14.3872-20.6848-48.896-5.0176-107.0592 37.12-139.1616 20.6848-15.872 44.5952-23.5008 68.096-24.2688 0.2048-1.28 0.2048-2.6112 0.3584-3.9424 6.912-52.5824 49.8176-94.7712 102.4-101.12 58.5728-7.0656 109.8752 28.928 126.6688 80.384v107.8784z m223.1296 526.08c-22.784 0-41.7792-15.4624-47.5648-36.5568h-127.0272v-25.7536h127.0272c5.7856-21.0944 24.6272-36.5568 47.5648-36.5568 27.2384 0 49.4592 22.2208 49.4592 49.4592 0 27.1872-22.2208 49.408-49.4592 49.408z m87.808-134.3488c-22.8864 0-42.1376-15.5136-47.7696-36.608H562.688v-25.6h214.6816c5.632-21.0944 24.8832-36.608 47.7696-36.608 27.2896 0 49.4592 22.1184 49.4592 49.4592s-22.1696 49.3568-49.4592 49.3568z" p-id="3591" fill="#13227a"></path></svg>